<?xml version="1.0" standalone="no"?>
<!DOCTYPE svg PUBLIC "-//W3C//DTD SVG 20010904//EN"
 "http://www.w3.org/TR/2001/REC-SVG-20010904/DTD/svg10.dtd">
<svg version="1.0" xmlns="http://www.w3.org/2000/svg"
 width="1727.000000pt" height="565.000000pt" viewBox="0 0 1727.000000 565.000000"
 preserveAspectRatio="xMidYMid meet">

<g transform="translate(0.000000,565.000000) scale(0.100000,-0.100000)"
fill="#000000" stroke="none">
<path d="M2381 4384 c-40 -25 -108 -64 -150 -86 -42 -22 -83 -46 -91 -53 -8
-7 -73 -45 -145 -85 -71 -39 -135 -76 -142 -82 -7 -5 -52 -31 -100 -57 -145
-78 -207 -113 -235 -133 -14 -10 -50 -31 -80 -47 -72 -38 -131 -71 -143 -81
-5 -4 -28 -18 -50 -30 -22 -12 -73 -40 -112 -63 l-73 -41 3 -804 2 -804 160
-92 c88 -51 194 -112 235 -135 41 -24 142 -82 224 -128 82 -46 161 -92 175
-101 14 -10 39 -24 56 -32 16 -8 58 -32 92 -53 35 -20 65 -37 69 -37 3 0 18
-8 32 -19 29 -20 76 -47 157 -91 81 -44 128 -71 157 -91 34 -24 69 -24 96 1
11 11 36 28 54 39 75 42 176 105 228 141 53 36 93 61 173 104 21 11 46 28 57
38 10 10 34 26 52 37 98 56 208 124 248 151 45 32 155 101 393 246 70 43 127
82 127 86 0 4 -9 8 -20 8 -10 0 -29 4 -42 9 -13 5 -48 14 -78 21 -30 6 -66 15
-80 19 -14 5 -50 14 -80 21 -30 6 -68 16 -85 21 -16 5 -61 16 -100 25 -38 9
-86 22 -105 29 -19 7 -69 23 -110 35 -41 12 -86 26 -100 30 -87 27 -137 35
-230 35 -99 0 -107 -2 -148 -29 -52 -36 -125 -130 -164 -213 -17 -35 -34 -65
-39 -68 -8 -5 -87 34 -114 55 -6 5 -53 31 -105 58 -114 59 -167 89 -200 111
-14 10 -63 37 -110 61 -47 24 -139 76 -205 115 -66 40 -136 80 -155 90 -19 10
-60 34 -90 54 -30 20 -104 65 -165 100 -183 105 -240 141 -240 152 0 6 20 22
45 36 25 14 59 34 75 44 34 21 65 38 190 104 50 26 95 50 100 55 38 29 357
194 600 311 44 21 91 45 105 53 32 19 259 126 269 126 3 0 30 -17 58 -37 148
-110 182 -132 223 -151 99 -44 152 -51 247 -33 26 6 75 15 108 21 72 14 130
33 199 64 28 13 78 33 111 44 57 21 161 61 343 133 45 18 81 37 79 42 -1 5
-27 23 -57 39 -30 17 -80 46 -110 66 -30 19 -84 51 -120 70 -89 47 -148 81
-195 112 -22 15 -76 46 -120 70 -44 24 -99 56 -123 71 -24 16 -45 29 -47 29
-3 0 -34 18 -70 40 -36 22 -68 40 -72 40 -4 0 -46 24 -93 53 -47 30 -112 69
-145 87 -108 59 -128 71 -164 96 -20 13 -42 24 -51 24 -8 -1 -48 -21 -89 -46z"/>
<path d="M12680 3750 c-19 -4 -73 -15 -120 -24 -47 -10 -104 -21 -127 -27 -23
-5 -56 -9 -72 -9 -38 0 -81 -37 -60 -51 8 -5 29 -9 47 -9 19 0 40 -8 52 -20
33 -33 24 -138 -23 -265 -8 -22 -19 -58 -25 -80 -6 -22 -20 -70 -32 -107 -11
-37 -20 -74 -20 -82 0 -26 -18 -27 -42 -2 -87 92 -255 89 -399 -8 -188 -127
-350 -351 -427 -591 -36 -112 -45 -169 -45 -280 -1 -114 10 -164 47 -220 47
-74 102 -105 181 -105 67 0 113 18 174 68 83 67 107 96 191 222 96 145 89 135
95 128 4 -3 -8 -47 -25 -98 -22 -67 -30 -112 -30 -162 0 -66 1 -70 39 -111
l40 -42 88 0 c86 0 90 1 159 42 80 49 111 79 188 183 59 79 65 103 29 108 -16
2 -29 -8 -51 -40 -43 -63 -109 -120 -134 -116 -51 8 -47 51 32 303 28 92 68
233 107 380 8 33 19 65 22 70 8 11 18 45 51 165 36 133 42 155 50 180 4 14 13
45 20 70 7 25 20 70 30 100 16 48 55 182 91 315 6 22 15 50 20 63 20 51 13 62
-38 61 -27 -1 -64 -5 -83 -9z m-509 -697 c36 -21 69 -87 69 -136 0 -86 -57
-275 -131 -434 -16 -34 -29 -64 -29 -68 0 -17 -157 -239 -183 -259 -67 -51
-125 -46 -152 11 -42 87 17 387 114 583 98 197 151 273 213 303 42 21 63 21
99 0z"/>
<path d="M4622 3116 c-51 -22 -169 -107 -236 -171 -98 -93 -220 -298 -274
-460 -29 -86 -62 -240 -62 -288 0 -60 38 -190 71 -242 42 -66 79 -85 164 -85
92 0 134 20 225 106 80 75 140 150 193 238 19 32 38 53 41 47 4 -5 -6 -45 -20
-88 -71 -210 -29 -303 137 -303 66 0 85 4 140 33 98 49 269 233 269 288 0 33
-45 24 -71 -13 -34 -51 -81 -98 -113 -115 -27 -14 -30 -13 -49 6 -20 20 -20
21 -3 93 10 39 28 104 40 142 13 39 29 91 36 116 7 25 16 56 20 70 4 14 13 43
18 65 6 22 21 74 32 115 12 41 26 93 33 115 6 22 14 45 17 50 4 6 13 33 20 60
7 28 21 77 31 110 9 33 20 73 24 89 l6 28 -147 -4 c-139 -3 -147 -4 -165 -27
-10 -13 -19 -31 -19 -41 0 -10 -6 -33 -14 -51 l-15 -34 -11 31 c-41 115 -80
144 -189 143 -55 0 -91 -7 -129 -23z m222 -86 c14 -17 28 -47 32 -66 10 -54
-2 -232 -21 -299 -59 -217 -216 -482 -315 -532 -58 -29 -66 -29 -101 6 -27 28
-29 34 -29 113 0 213 112 537 251 725 65 87 136 108 183 53z"/>
<path d="M5920 3130 c-19 -4 -65 -13 -102 -19 -177 -29 -205 -34 -230 -43 -46
-17 -35 -42 23 -55 28 -7 58 -21 66 -30 26 -33 8 -112 -143 -623 -55 -188 -69
-237 -94 -330 -13 -47 -28 -91 -33 -98 -5 -7 -7 -16 -3 -20 9 -9 269 -16 310
-8 30 6 33 10 55 94 35 130 60 222 73 267 13 42 41 97 127 248 11 20 30 54 42
75 11 20 31 48 43 62 13 14 49 60 81 104 59 79 135 145 167 146 37 0 30 -73
-22 -240 -4 -14 -13 -45 -20 -70 -7 -25 -16 -54 -21 -65 -4 -11 -17 -54 -29
-95 -11 -41 -25 -91 -30 -110 -5 -19 -23 -84 -40 -145 -44 -162 -52 -187 -64
-223 -8 -26 -8 -35 4 -42 21 -13 296 -10 314 3 8 7 35 86 61 177 50 179 74
249 105 311 25 49 159 262 169 269 4 3 26 32 48 65 73 107 158 174 195 154 19
-10 19 -39 -2 -114 -5 -16 -14 -50 -21 -75 -18 -70 -27 -99 -55 -185 -14 -44
-34 -109 -44 -145 -9 -36 -29 -109 -44 -162 -34 -126 -35 -213 -3 -249 67 -79
156 -90 271 -35 93 45 168 113 228 205 51 78 56 92 35 109 -16 13 -25 7 -61
-43 -34 -46 -106 -114 -122 -115 -6 0 -17 6 -23 14 -10 12 -5 44 24 153 20 76
49 176 65 223 59 171 111 375 117 456 7 100 -6 143 -55 184 -33 27 -43 30
-107 30 -87 -1 -127 -20 -229 -112 -70 -64 -187 -210 -286 -360 -24 -37 -46
-66 -48 -64 -3 4 17 89 51 216 38 143 30 229 -28 287 -31 31 -37 33 -104 33
-102 0 -158 -24 -245 -107 -70 -67 -213 -245 -284 -355 -55 -86 -65 -79 -33
25 10 34 28 96 40 137 32 114 42 143 51 165 17 38 38 123 33 129 -9 8 -131 5
-173 -4z"/>
<path d="M8123 3110 c-63 -29 -110 -61 -197 -137 -51 -46 -146 -160 -167 -202
-8 -14 -25 -44 -39 -66 -29 -45 -70 -129 -70 -145 0 -6 -4 -18 -10 -28 -5 -9
-17 -39 -26 -67 -75 -230 -52 -468 56 -558 63 -53 191 -50 274 7 70 48 154
135 222 231 31 44 66 91 76 105 l20 25 -7 -33 c-4 -18 -18 -67 -31 -109 -30
-95 -31 -154 -3 -200 32 -51 69 -66 158 -61 98 4 173 40 257 123 71 71 148
180 140 201 -11 29 -44 14 -85 -40 -40 -54 -98 -106 -118 -106 -15 0 -43 34
-43 53 0 9 6 36 14 59 7 24 19 63 26 88 7 25 17 59 21 75 5 17 23 80 39 140
17 61 35 128 41 150 7 22 15 54 20 70 4 17 22 73 39 125 47 145 88 299 82 305
-7 7 -195 5 -256 -3 l-49 -7 -17 -60 c-9 -33 -22 -60 -29 -60 -7 0 -21 22 -30
50 -26 76 -73 104 -171 104 -61 0 -86 -5 -137 -29z m224 -70 c24 -22 53 -111
53 -164 0 -141 -102 -438 -196 -569 -94 -131 -116 -156 -159 -176 -55 -26 -66
-26 -93 -1 -37 35 -46 92 -32 200 22 168 81 349 167 510 71 134 83 150 132
186 53 39 97 44 128 14z"/>
<path d="M9350 3125 c-30 -7 -91 -20 -135 -30 -44 -9 -101 -23 -127 -32 -55
-17 -65 -43 -18 -43 37 0 85 -23 94 -45 18 -48 -14 -215 -107 -560 -19 -71
-49 -193 -67 -270 -17 -77 -36 -153 -41 -169 -22 -69 -26 -67 148 -64 l157 3
18 70 c40 159 83 302 98 330 9 17 23 48 32 70 14 36 70 160 101 225 24 52 107
168 137 194 50 42 71 36 114 -32 34 -55 66 -68 113 -46 67 33 113 133 113 251
0 117 -35 163 -124 163 -55 0 -114 -29 -157 -77 -29 -33 -109 -149 -109 -158
0 -4 -13 -25 -28 -48 -16 -23 -57 -100 -91 -172 -34 -71 -69 -141 -77 -155 -8
-14 -18 -33 -21 -42 -3 -10 -9 -18 -14 -18 -12 0 -11 23 0 52 20 52 76 250
111 398 5 19 18 71 29 115 11 44 21 86 21 93 0 16 -94 14 -170 -3z"/>
<path d="M10610 3128 c-81 -35 -98 -44 -130 -67 -19 -14 -37 -28 -40 -31 -3
-3 -25 -20 -50 -39 -25 -19 -53 -44 -62 -55 -139 -170 -176 -231 -246 -406
-53 -133 -73 -220 -73 -323 -1 -140 29 -223 106 -297 33 -32 41 -35 110 -38
62 -4 82 0 121 19 87 41 229 191 310 327 42 69 44 51 9 -85 -29 -113 -30 -138
-11 -184 27 -65 47 -74 155 -74 93 0 99 1 156 35 60 36 185 145 185 162 0 5
16 32 35 61 41 60 43 77 13 77 -15 0 -31 -12 -45 -33 -34 -49 -85 -100 -116
-116 -25 -14 -29 -13 -49 7 l-22 22 23 92 c21 88 32 126 51 173 4 11 13 40 20
65 7 25 16 56 20 70 4 14 13 45 20 70 7 25 16 56 20 70 4 14 12 43 18 65 6 22
20 69 30 105 11 36 25 88 32 115 7 28 16 55 20 60 4 6 13 33 20 60 6 28 14 58
17 68 4 15 -5 17 -99 16 -133 -1 -199 -10 -209 -29 -4 -8 -16 -42 -25 -75
l-16 -60 -35 73 c-44 94 -72 112 -168 111 -38 0 -81 -5 -95 -11z m184 -91 c25
-25 46 -101 46 -166 0 -115 -49 -291 -121 -431 -138 -273 -259 -380 -338 -301
-48 48 -35 219 34 427 74 223 181 422 255 472 44 29 94 29 124 -1z"/>
<path d="M13520 3129 c-90 -24 -120 -35 -191 -70 -119 -59 -150 -78 -206 -125
-78 -67 -168 -160 -183 -191 -8 -15 -28 -48 -46 -73 -118 -167 -165 -439 -105
-600 29 -77 69 -121 146 -160 61 -31 75 -34 178 -38 62 -2 139 1 172 7 68 13
228 86 289 133 67 52 186 179 186 199 0 25 -28 24 -60 -2 -53 -43 -167 -116
-214 -138 -60 -28 -173 -38 -234 -22 -45 13 -93 55 -120 106 -18 36 -26 143
-15 205 l9 45 79 13 c231 37 347 77 455 156 110 80 151 127 209 243 25 50 31
72 31 127 0 93 -28 140 -107 180 -36 18 -211 21 -273 5z m54 -90 c23 -18 26
-28 26 -78 0 -153 -130 -365 -263 -431 -67 -32 -174 -57 -188 -43 -22 22 91
285 171 403 66 95 155 169 206 170 12 0 33 -9 48 -21z"/>
<path d="M14415 3130 c-16 -5 -55 -13 -85 -20 -99 -20 -170 -37 -237 -56 -7
-2 -13 -10 -13 -19 0 -11 10 -15 36 -15 26 0 43 -8 65 -29 35 -36 36 -58 8
-178 -54 -234 -100 -418 -162 -658 -39 -148 -56 -228 -51 -237 3 -4 75 -8 160
-8 137 0 154 2 154 17 0 9 4 30 9 47 5 17 14 49 20 71 69 283 259 687 357 764
44 35 70 28 106 -29 50 -75 103 -85 154 -29 87 96 105 302 32 364 -22 19 -41
25 -77 25 -61 0 -96 -18 -153 -78 -42 -46 -108 -134 -108 -146 0 -2 -26 -49
-57 -103 -48 -83 -94 -175 -158 -317 -18 -41 -30 -13 -15 38 6 22 16 59 22 81
6 22 14 54 19 70 5 17 16 59 24 95 31 126 65 252 80 296 8 25 15 49 15 54 0
12 -102 11 -145 0z"/>
<path d="M15410 3129 c-14 -4 -86 -27 -160 -49 -74 -23 -146 -47 -160 -54 -39
-18 -31 -40 15 -46 94 -12 135 -64 155 -198 20 -140 48 -987 36 -1086 -6 -47
-15 -65 -44 -98 -38 -42 -98 -78 -131 -78 -12 0 -48 28 -84 64 -69 70 -102 83
-179 73 -66 -9 -128 -89 -128 -164 1 -42 31 -100 70 -136 40 -35 46 -37 112
-37 55 0 82 6 134 30 36 16 82 42 101 57 59 46 267 254 314 314 24 31 66 83
92 115 89 108 397 549 397 568 0 3 26 45 58 94 199 303 236 532 100 618 -51
33 -132 33 -179 1 -36 -24 -79 -97 -79 -135 0 -42 31 -90 84 -131 68 -53 80
-76 73 -144 -7 -69 -47 -153 -144 -302 -43 -66 -91 -141 -106 -167 -15 -26
-33 -53 -40 -60 -7 -7 -27 -32 -45 -55 -19 -24 -38 -43 -43 -43 -5 0 -9 46 -9
103 0 163 -32 624 -52 732 -11 61 -58 176 -86 208 -16 18 -32 20 -72 6z"/>
</g>
</svg>
